<?xml version="1.0" standalone="no"?>
<!DOCTYPE svg PUBLIC "-//W3C//DTD SVG 20010904//EN"
 "http://www.w3.org/TR/2001/REC-SVG-20010904/DTD/svg10.dtd">
<svg version="1.0" xmlns="http://www.w3.org/2000/svg"
 width="500.000000pt" height="500.000000pt" viewBox="0 0 500.000000 500.000000"
 preserveAspectRatio="xMidYMid meet">

<g transform="translate(0.000000,500.000000) scale(0.100000,-0.100000)"
fill="#000000" stroke="none">
<path d="M2205 4990 c-154 -9 -168 -11 -350 -57 -164 -41 -295 -88 -420 -150
-100 -51 -279 -163 -271 -171 14 -13 177 47 276 102 14 8 43 19 65 24 22 6 86
27 143 47 113 40 153 43 76 4 -39 -19 -50 -30 -52 -52 -2 -16 -11 -31 -20 -33
-40 -13 -61 -28 -71 -51 -11 -24 -10 -25 16 -21 15 3 35 8 45 12 12 5 18 1 23
-15 12 -36 -17 -49 -106 -49 -42 0 -112 -7 -156 -15 -43 -8 -114 -19 -158 -25
-43 -5 -97 -19 -120 -30 -59 -28 -122 -86 -145 -131 -11 -21 -44 -56 -75 -79
-60 -44 -67 -57 -32 -62 20 -3 17 -9 -36 -63 -31 -33 -66 -78 -76 -101 -11
-23 -43 -60 -71 -84 -28 -23 -49 -45 -46 -47 6 -6 61 23 128 68 31 22 61 39
67 39 5 0 26 16 47 35 42 40 140 91 192 101 48 9 62 -12 62 -93 0 -48 3 -63
14 -63 8 0 16 10 18 23 2 12 10 22 18 22 11 0 16 -14 18 -54 2 -30 10 -60 18
-68 20 -20 18 -41 -16 -146 -51 -158 -39 -247 45 -359 25 -33 45 -70 45 -81 0
-12 9 -35 20 -52 12 -18 17 -38 14 -52 -5 -17 3 -33 25 -58 17 -20 31 -41 31
-48 0 -7 16 -28 35 -47 34 -33 35 -33 35 -10 0 13 -8 32 -17 42 -10 11 -16 32
-15 49 1 16 -2 29 -7 29 -13 0 -49 51 -67 97 l-14 38 31 -35 c17 -19 64 -75
104 -125 39 -49 93 -110 119 -133 l48 -44 -21 -22 c-12 -12 -21 -28 -21 -34 0
-16 43 -32 86 -32 26 0 34 -4 34 -18 0 -43 76 -77 205 -93 65 -8 92 -17 146
-49 36 -22 87 -47 115 -55 79 -23 143 -69 161 -115 9 -22 20 -40 25 -40 5 0
24 -11 41 -24 64 -47 151 -61 160 -26 8 32 33 23 60 -22 30 -52 42 -124 27
-164 -6 -15 -33 -51 -59 -79 -58 -61 -91 -142 -91 -223 0 -48 6 -67 36 -117
46 -75 134 -254 134 -271 0 -23 50 -73 110 -109 108 -66 129 -115 106 -252 -9
-49 -22 -147 -31 -220 -8 -72 -19 -143 -25 -157 -5 -14 -21 -85 -34 -157 -14
-73 -33 -143 -41 -156 -14 -21 -14 -23 1 -23 11 0 14 -5 9 -17 -27 -64 -5
-111 69 -148 51 -26 129 -34 141 -15 4 6 -7 23 -24 37 -17 15 -31 33 -31 39 0
6 16 24 36 39 30 23 34 31 29 55 -5 24 1 35 52 83 69 67 161 137 180 137 18 0
45 46 52 88 6 35 8 37 52 42 28 4 60 16 81 32 52 40 313 300 321 320 3 10 32
31 64 47 87 44 149 117 183 217 24 68 45 104 126 210 66 87 90 140 80 180 -5
17 -13 24 -30 24 -14 0 -37 11 -53 24 -36 30 -67 46 -89 46 -10 0 -77 30 -151
67 -119 59 -136 65 -159 54 l-26 -11 23 31 c21 30 21 33 5 59 -9 16 -16 38
-16 50 0 35 -62 86 -135 110 -112 37 -226 127 -237 185 -2 14 -12 21 -33 23
-55 5 -75 12 -75 28 0 8 -4 12 -10 9 -5 -3 -10 -15 -10 -27 0 -19 -4 -20 -42
-14 -45 7 -71 23 -62 37 3 5 -4 9 -15 9 -11 0 -39 7 -62 17 -33 13 -46 14 -60
5 -25 -16 -27 -15 -31 6 -3 18 -6 18 -71 -3 -46 -15 -81 -35 -106 -59 -41 -40
-55 -43 -105 -20 -32 16 -37 16 -76 0 -84 -33 -118 4 -129 141 -9 113 -15 118
-131 115 l-91 -3 15 29 c8 16 12 32 9 36 -3 3 7 38 22 76 34 85 29 95 -45 85
-49 -7 -53 -9 -70 -49 -21 -49 -60 -71 -129 -71 -37 0 -47 5 -72 34 -51 62
-75 169 -50 233 24 64 144 146 227 156 30 3 45 10 49 22 8 25 37 30 108 19 77
-13 101 -28 128 -82 44 -87 86 -126 104 -97 11 17 -24 105 -50 130 -45 43 -24
106 61 186 50 46 56 80 24 129 -26 40 -25 51 4 32 23 -16 24 -15 48 31 14 26
34 65 46 87 12 22 24 48 27 59 5 16 12 17 73 11 60 -6 69 -4 86 14 10 11 31
23 47 26 21 5 34 16 44 41 12 29 19 34 46 34 18 0 41 -7 51 -17 17 -15 18 -15
18 0 0 22 9 21 26 0 13 -17 13 -17 14 0 0 37 -48 106 -61 86 -11 -19 -36 2
-92 77 -39 51 -62 72 -87 79 -19 6 -64 37 -100 71 -36 33 -76 68 -90 77 -24
17 -25 16 -42 -5 l-17 -23 -38 21 c-21 12 -60 33 -86 49 -30 17 -66 28 -98 31
-41 2 -54 8 -77 35 -37 43 -40 49 -43 84 -5 66 -2 73 36 72 26 -1 35 -6 37
-21 2 -17 10 -21 38 -21 43 0 43 -18 -1 -58 -25 -23 -28 -31 -19 -43 7 -7 22
-14 34 -14 11 0 57 -16 101 -36 109 -49 123 -52 133 -24 5 13 5 39 0 59 -4 20
-10 48 -13 62 -6 33 -120 158 -159 174 l-29 13 23 12 c53 28 147 -4 212 -72
15 -15 34 -28 42 -28 10 0 16 -9 16 -24 0 -13 9 -35 20 -49 11 -14 20 -35 20
-47 0 -11 4 -19 9 -16 11 7 73 -34 131 -88 50 -46 132 -100 169 -111 22 -7 23
-5 18 21 -2 16 -12 58 -22 94 -22 86 -9 146 36 163 16 6 29 17 29 25 0 22 -32
62 -62 78 -17 9 -68 45 -115 80 -97 73 -235 145 -282 148 -34 2 -57 19 -47 35
9 13 289 14 390 1 68 -8 96 -5 96 11 0 12 -59 26 -160 39 -111 14 -550 21
-715 10z m340 -50 c4 -6 -5 -10 -19 -10 -14 0 -26 5 -26 10 0 6 9 10 19 10 11
0 23 -4 26 -10z m-240 -135 c19 -3 52 -8 73 -11 87 -14 133 -54 61 -54 -16 0
-40 -7 -53 -15 -21 -14 -28 -13 -80 11 -37 17 -66 24 -81 20 -39 -10 -59 48
-34 95 10 19 11 19 44 -10 19 -17 50 -32 70 -36z m-327 -63 c2 -12 -1 -22 -7
-22 -13 0 -32 35 -24 44 12 12 28 0 31 -22z m-82 3 c4 -8 3 -22 0 -30 -5 -14
-9 -14 -32 2 -25 16 -25 17 -8 30 23 17 33 16 40 -2z m-121 -24 l40 -7 -34
-18 -34 -18 -31 32 c-30 32 -30 32 -6 25 14 -4 43 -10 65 -14z m303 -15 c0
-18 5 -43 11 -54 19 -36 12 -37 -24 -2 -40 38 -42 46 -18 72 23 26 31 22 31
-16z m-119 -48 c16 -6 21 -12 13 -15 -20 -8 -76 6 -98 23 -18 14 -16 15 20 9
21 -3 50 -11 65 -17z m206 -28 c7 -12 -12 -40 -26 -40 -10 0 -12 34 -2 43 9
10 21 9 28 -3z m-235 -40 c0 -11 -42 -31 -49 -24 -2 2 2 10 9 19 14 17 40 20
40 5z m-155 -20 c4 -6 -10 -10 -35 -10 -25 0 -39 4 -35 10 3 6 19 10 35 10 16
0 32 -4 35 -10z m-61 -107 c6 -7 -62 -83 -74 -83 -4 0 -5 14 -2 30 5 36 -7 38
-57 8 l-36 -22 20 24 c34 39 126 66 149 43z m514 -30 c23 -3 42 -10 42 -15 0
-5 14 -14 30 -19 23 -9 30 -17 30 -37 0 -15 12 -39 30 -57 19 -20 33 -47 37
-71 7 -49 19 -64 49 -64 13 0 24 -4 24 -9 0 -13 -57 -34 -75 -27 -10 4 -15 -1
-15 -14 0 -23 0 -23 -88 -8 -37 6 -80 8 -96 4 l-29 -7 33 -34 c19 -19 30 -38
26 -42 -4 -5 -13 0 -20 9 -7 10 -15 15 -18 12 -3 -2 -17 1 -31 7 -21 10 -30 9
-43 -2 -14 -12 -19 -10 -40 14 -13 16 -24 35 -24 43 0 23 38 54 66 54 17 0 28
-6 31 -20 7 -27 30 -26 29 1 -1 12 5 24 12 26 6 3 12 -2 12 -11 0 -20 33 -21
49 -2 19 22 -22 40 -75 32 -39 -5 -48 -2 -86 29 -24 20 -55 43 -70 53 -16 9
-28 24 -28 33 0 19 19 39 39 39 8 0 38 23 68 51 39 37 59 49 71 44 9 -4 36
-10 60 -12z m-348 -17 c0 -19 -17 -29 -37 -22 -12 5 -13 9 -3 21 16 19 40 19
40 1z m-110 -25 c0 -5 -7 -14 -15 -21 -27 -23 5 -31 33 -9 27 21 42 17 42 -12
0 -26 18 -24 42 6 16 20 23 23 34 14 21 -17 17 -49 -8 -59 -15 -6 -17 -9 -7
-9 9 -1 24 8 34 19 10 11 22 20 27 20 18 0 6 -22 -43 -76 -47 -53 -49 -57 -34
-74 15 -17 15 -19 -3 -24 -11 -4 -32 -4 -46 0 -22 5 -23 8 -13 26 10 16 9 22
-7 34 -17 12 -22 12 -37 -2 -16 -14 -22 -13 -69 7 -51 22 -52 23 -33 38 12 9
29 21 39 27 16 9 14 10 -13 6 -26 -3 -33 -1 -33 12 0 9 -4 16 -10 16 -27 0 -5
23 43 45 55 26 77 31 77 16z m840 -128 c0 -10 -32 -43 -42 -43 -12 0 -10 24 4
38 13 13 38 16 38 5z m-606 -9 c9 -3 16 -10 16 -15 0 -15 -37 -10 -50 6 -10
12 -10 15 3 15 8 0 22 -3 31 -6z m466 -159 c13 -16 6 -35 -14 -35 -18 0 -39
27 -31 40 9 14 31 12 45 -5z m80 -21 c0 -17 -12 -18 -27 -3 -17 17 -5 43 13
28 8 -6 14 -18 14 -25z m205 -16 c39 -18 30 -28 -25 -28 -35 0 -50 4 -50 13 0
29 31 35 75 15z m95 -14 c0 -12 7 -15 25 -12 14 3 28 2 31 -3 7 -11 -45 -111
-55 -105 -15 10 -34 84 -27 110 7 29 26 36 26 10z m-640 -40 c22 -15 37 -30
34 -35 -6 -11 -121 -11 -148 0 -17 6 -15 10 14 34 39 34 50 34 100 1z m565
-74 c4 -6 -5 -10 -19 -10 -14 0 -26 5 -26 10 0 6 9 10 19 10 11 0 23 -4 26
-10z"/>
<path d="M2081 4254 c12 -14 61 -44 74 -44 3 0 5 7 5 16 0 8 -16 22 -35 30
-46 19 -61 19 -44 -2z"/>
<path d="M2367 4214 c-4 -4 -7 -14 -7 -23 0 -11 3 -12 11 -4 6 6 10 16 7 23
-2 6 -7 8 -11 4z"/>
<path d="M1790 4282 c0 -12 23 -32 37 -32 22 0 15 16 -12 28 -14 6 -25 8 -25
4z"/>
<path d="M3255 4437 c-31 -10 -36 -14 -22 -20 9 -3 17 -13 17 -20 0 -10 8 -13
25 -9 14 2 43 -3 65 -12 22 -9 56 -16 75 -16 82 0 11 70 -85 84 -19 3 -53 -1
-75 -7z"/>
<path d="M592 4124 l-23 -16 27 -14 c35 -18 84 -2 84 27 0 24 -55 26 -88 3z"/>
<path d="M4412 4109 c3 -21 -1 -24 -24 -21 -24 3 -28 0 -28 -23 0 -14 -7 -28
-15 -31 -20 -8 -19 -58 0 -78 19 -19 42 -11 51 17 7 22 7 22 15 2 4 -11 8 -33
8 -48 1 -19 12 -40 34 -60 l32 -30 -33 6 c-37 8 -38 10 20 -73 37 -54 61 -130
41 -130 -6 0 -32 9 -57 21 -62 27 -72 18 -79 -74 -3 -39 -9 -95 -13 -124 l-7
-52 34 -3 c29 -2 34 -7 37 -30 4 -32 10 -34 38 -13 27 20 40 19 21 -3 -10 -10
-17 -27 -17 -38 0 -10 -9 -30 -20 -44 -11 -14 -20 -33 -20 -42 0 -21 -64 -75
-107 -90 -18 -7 -36 -21 -39 -32 -3 -12 -21 -60 -40 -107 -21 -53 -34 -104
-34 -131 0 -25 -7 -59 -16 -77 -12 -24 -15 -55 -12 -132 3 -97 4 -101 31 -121
15 -11 39 -42 52 -69 32 -62 85 -115 124 -124 17 -4 47 -1 66 5 20 7 48 9 62
5 17 -4 40 2 74 20 62 32 87 32 95 0 4 -18 15 -26 39 -31 l34 -6 -1 -116 c0
-65 5 -133 11 -152 16 -49 14 -116 -4 -150 -23 -44 -43 -155 -60 -331 -8 -86
-20 -181 -25 -210 -6 -29 -8 -54 -6 -56 5 -5 11 5 67 100 19 33 55 77 81 98
58 49 74 94 88 241 6 59 21 160 34 225 40 196 50 299 50 498 0 159 -5 218 -28
360 -41 255 -51 297 -76 317 -31 25 -38 23 -32 -9 3 -20 1 -25 -6 -18 -18 17
-82 128 -82 142 0 23 29 14 70 -23 22 -20 43 -34 46 -31 22 22 -180 486 -245
559 -15 18 -31 43 -35 55 -10 32 -99 165 -126 188 -20 17 -18 10 13 -48 39
-71 46 -111 25 -140 -12 -15 -13 -14 -14 12 -1 16 -17 64 -38 106 -22 47 -36
92 -36 115 0 22 -5 42 -11 46 -7 4 -9 -2 -7 -17z m264 -591 c49 -58 109 -215
74 -193 -5 3 -10 17 -10 29 0 19 -7 25 -37 30 -21 3 -54 6 -74 6 -47 0 -74 28
-64 67 8 36 52 93 70 93 7 0 26 -15 41 -32z m148 -185 c8 -20 1 -27 -19 -20
-8 4 -15 15 -15 26 0 24 25 19 34 -6z"/>
<path d="M585 3909 c-4 -6 -5 -13 -2 -16 7 -7 27 6 27 18 0 12 -17 12 -25 -2z"/>
<path d="M381 3812 c-15 -28 -14 -42 3 -42 18 0 31 39 18 52 -7 7 -14 3 -21
-10z"/>
<path d="M473 3803 c-18 -7 -16 -23 2 -23 8 0 15 7 15 15 0 8 -1 15 -2 14 -2
0 -9 -3 -15 -6z"/>
<path d="M4465 3691 c-10 -17 12 -21 25 -6 10 12 10 15 -3 15 -9 0 -18 -4 -22
-9z"/>
<path d="M278 3643 c-39 -44 -112 -225 -130 -323 -5 -30 -18 -65 -28 -78 -38
-47 -87 -344 -96 -572 -5 -138 2 -188 23 -166 4 4 11 80 14 169 6 184 16 219
64 227 39 7 44 38 14 86 -19 32 -21 45 -17 127 8 134 38 185 64 107 l11 -34
16 25 c38 57 60 127 65 198 4 60 2 73 -9 69 -8 -3 -17 -25 -21 -52 -7 -49 -35
-107 -56 -114 -32 -10 12 129 58 181 41 48 51 72 43 108 -5 27 -3 31 9 26 12
-4 14 -1 11 14 -7 24 -15 24 -35 2z"/>
<path d="M4425 3309 c-4 -6 -5 -13 -2 -16 7 -7 27 6 27 18 0 12 -17 12 -25 -2z"/>
<path d="M2380 3082 c-27 -22 -26 -26 8 -36 15 -5 24 -3 28 8 4 10 19 16 41
16 26 0 34 -4 30 -14 -4 -10 5 -15 31 -19 20 -2 65 -15 100 -27 42 -16 66 -20
73 -13 13 13 -16 32 -106 68 -93 38 -171 44 -205 17z"/>
<path d="M2835 2940 c-10 -11 -29 -20 -42 -20 -27 0 -31 -16 -5 -22 26 -7 212
13 212 23 0 14 -24 23 -65 24 -22 1 -49 5 -61 9 -14 4 -26 0 -39 -14z"/>
<path d="M3054 2916 c-25 -19 -14 -28 26 -24 32 3 32 3 13 20 -17 16 -22 16
-39 4z"/>
<path d="M2637 2914 c-15 -15 -6 -24 24 -24 20 0 29 4 27 13 -5 14 -40 21 -51
11z"/>
<path d="M156 2763 c-6 -27 7 -124 19 -144 4 -5 13 -9 21 -9 15 0 17 -7 14
-57 -2 -41 20 -44 49 -7 18 23 19 29 6 53 -7 15 -21 34 -31 42 -23 19 -54 88
-54 122 0 15 -4 27 -9 27 -5 0 -12 -12 -15 -27z"/>
<path d="M162 2553 c-14 -26 -16 -63 -2 -63 12 0 23 42 18 67 -4 16 -5 16 -16
-4z"/>
<path d="M267 2503 c-4 -10 -12 -25 -19 -34 -9 -14 -8 -22 5 -43 10 -14 24
-26 33 -26 12 0 14 11 12 57 -3 56 -20 81 -31 46z"/>
<path d="M10 2444 c0 -11 7 -74 15 -141 15 -124 35 -198 42 -158 5 32 -34 296
-46 308 -8 8 -11 5 -11 -9z"/>
<path d="M133 2383 c-28 -65 -32 -89 -34 -167 -2 -73 3 -84 41 -88 20 -3 26 4
40 41 l17 44 6 -77 c4 -43 11 -84 15 -93 8 -13 10 -13 24 0 12 12 18 13 28 4
10 -10 11 -6 6 18 -22 91 -18 112 13 83 11 -11 13 -10 9 2 -2 8 -22 24 -44 35
l-39 20 40 5 c27 3 41 10 43 23 3 14 -4 17 -41 17 -58 0 -77 21 -84 96 -8 86
-16 94 -40 37z"/>
<path d="M1182 2398 c3 -7 24 -26 48 -43 25 -17 47 -42 50 -55 9 -36 30 -37
30 -1 0 36 -23 62 -79 91 -47 23 -54 25 -49 8z"/>
<path d="M347 2256 c-10 -25 -8 -98 2 -115 12 -19 23 67 13 104 -7 24 -9 26
-15 11z"/>
<path d="M413 2189 c-7 -7 -13 -23 -13 -35 0 -30 -25 -54 -57 -54 -36 0 -24
-23 17 -31 44 -9 60 -2 60 26 0 13 5 27 10 30 17 10 39 -13 33 -35 -4 -15 10
-29 66 -64 38 -25 78 -57 87 -71 16 -24 16 -26 -1 -39 -23 -16 -11 -36 21 -36
13 0 32 -9 41 -20 23 -27 67 -26 85 2 13 20 17 21 46 9 17 -7 38 -23 46 -36
19 -30 81 -67 103 -63 13 2 6 16 -35 61 -67 74 -65 90 8 97 65 6 75 12 96 52
18 35 12 58 -14 58 -15 0 -18 -6 -15 -22 6 -30 -40 -58 -94 -58 -29 0 -51 9
-91 39 -64 48 -187 111 -216 111 -11 0 -29 -7 -40 -15 -25 -19 -56 -3 -56 28
0 29 -18 47 -46 47 -13 0 -24 7 -26 16 -2 12 -5 13 -15 3z"/>
<path d="M542 2140 c0 -14 2 -19 5 -12 2 6 2 18 0 25 -3 6 -5 1 -5 -13z"/>
<path d="M2287 2124 c-14 -15 -6 -34 14 -34 14 0 19 5 17 17 -3 18 -20 27 -31
17z"/>
<path d="M83 2074 c-9 -24 12 -59 54 -90 21 -15 55 -43 75 -62 32 -30 39 -33
53 -22 25 21 14 52 -24 65 -18 6 -38 17 -45 26 -6 8 -24 22 -39 32 -15 10 -33
29 -39 43 -13 28 -26 31 -35 8z"/>
<path d="M502 1979 c1 -12 9 -24 16 -27 9 -3 13 3 10 19 -1 12 -9 24 -16 27
-9 3 -13 -3 -10 -19z"/>
<path d="M320 1930 c-28 -28 -26 -50 5 -50 14 0 25 6 25 13 0 6 3 22 6 35 8
28 -9 29 -36 2z"/>
<path d="M445 1939 c-4 -6 -5 -13 -2 -16 7 -7 27 6 27 18 0 12 -17 12 -25 -2z"/>
<path d="M1092 1926 c12 -27 56 -50 85 -44 14 3 9 11 -26 36 -55 40 -75 42
-59 8z"/>
<path d="M1235 1861 c-3 -6 -22 -11 -41 -11 -21 0 -33 -4 -29 -10 3 -5 29 -10
56 -10 42 0 50 3 47 17 -4 20 -24 28 -33 14z"/>
<path d="M450 1805 c-6 -15 -10 -33 -10 -40 0 -9 -15 -15 -42 -17 -36 -3 -44
-7 -46 -26 -2 -13 -10 -26 -18 -29 -8 -3 -14 -17 -14 -32 0 -17 -10 -35 -32
-53 l-33 -26 19 -54 c10 -30 46 -108 80 -174 57 -112 64 -120 109 -143 45 -22
49 -23 61 -6 11 15 17 16 49 6 39 -13 201 -166 336 -318 41 -46 80 -83 87 -83
23 0 16 17 -21 51 -19 19 -35 36 -35 40 0 4 12 10 28 14 34 8 62 33 62 55 0
10 12 43 26 75 36 77 31 170 -12 242 -16 26 -34 59 -40 73 -7 14 -34 50 -61
80 -61 69 -78 96 -104 165 -11 30 -27 59 -36 63 -8 5 -23 33 -32 62 -28 86
-54 72 -44 -24 4 -33 2 -46 -7 -46 -26 0 -107 53 -124 80 -11 20 -30 33 -57
40 -22 6 -49 20 -60 31 -19 19 -19 19 -29 -6z m588 -565 c3 -21 2 -22 -12 -11
-19 16 -21 44 -3 39 6 -3 14 -15 15 -28z"/>
<path d="M1277 1802 c-25 -28 -21 -45 8 -40 17 4 29 0 35 -11 17 -31 23 0 7
34 -19 40 -27 42 -50 17z"/>
<path d="M1490 1570 c0 -20 24 -60 37 -60 16 0 17 24 3 51 -11 19 -40 27 -40
9z"/>
<path d="M1930 1490 c0 -5 9 -10 19 -10 11 0 23 5 26 10 4 6 -5 10 -19 10 -14
0 -26 -4 -26 -10z"/>
<path d="M1862 1458 c2 -15 11 -24 26 -26 24 -4 30 16 10 36 -20 20 -40 14
-36 -10z"/>
<path d="M1405 1390 c-4 -6 8 -25 26 -43 38 -38 51 -22 19 23 -22 31 -35 37
-45 20z"/>
<path d="M1437 1104 c-3 -3 -3 -30 0 -60 5 -47 4 -54 -12 -54 -17 0 -17 -1 -2
-18 16 -17 14 -19 -36 -35 -68 -22 -159 -75 -154 -90 9 -27 62 -18 123 21 34
22 76 47 95 56 19 9 47 27 64 40 l29 23 -42 48 c-23 26 -42 54 -42 61 0 14
-12 19 -23 8z"/>
<path d="M3092 457 c-6 -7 -7 -19 -3 -26 12 -19 51 -9 69 17 14 21 13 22 -21
22 -19 0 -39 -6 -45 -13z"/>
<path d="M3575 301 c-38 -15 -96 -31 -128 -35 -32 -3 -86 -16 -120 -27 -135
-46 -340 -64 -407 -35 -24 10 -42 11 -71 3 -22 -5 -39 -12 -39 -16 1 -3 19
-19 41 -34 23 -16 39 -30 38 -31 -2 -2 -46 -6 -97 -9 -83 -5 -92 -4 -90 11 2
12 -3 16 -17 14 -104 -16 -165 -13 -229 8 -42 14 -73 19 -84 14 -9 -5 -98 -9
-197 -9 -134 0 -186 -4 -204 -14 -33 -19 -19 -25 110 -50 188 -37 271 -44 479
-43 353 1 611 47 884 156 154 62 221 96 219 111 -3 17 -17 15 -88 -14z"/>
</g>
</svg>
